<svg width="26" height="40" viewBox="0 0 26 40" fill="none" xmlns="http://www.w3.org/2000/svg">
<path d="M1 8H25V32H1V8Z" fill="#FF7F50" fill-opacity="0.8"/>
<path d="M24.7119 30.3994C24.165 30.3701 23.6328 30.3311 23.1152 30.2822C22.6074 30.2236 22.1436 30.1455 21.7236 30.0479C21.3037 29.9502 20.9473 29.8232 20.6543 29.667C20.3711 29.501 20.1855 29.2959 20.0977 29.0518L11.9971 9.04199C11.8311 9.05176 11.6699 9.12012 11.5137 9.24707C11.4453 10.458 11.0742 11.4297 10.4004 12.1621L10.7373 13.0264L4.55566 28.5684C4.16504 29.5449 2.96387 30.1553 0.952148 30.3994C0.893555 30.5361 0.864258 30.6582 0.864258 30.7656C0.864258 30.8828 0.893555 31 0.952148 31.1172C2.06543 31.0781 2.95898 31.0488 3.63281 31.0293C4.31641 31.0098 4.78516 31 5.03906 31C5.26367 31 5.77148 31.0098 6.5625 31.0293C7.36328 31.0488 8.44727 31.0781 9.81445 31.1172C9.87305 31 9.90234 30.8828 9.90234 30.7656C9.90234 30.6582 9.87305 30.5361 9.81445 30.3994C9.00391 30.3213 8.34473 30.2383 7.83691 30.1504C7.3291 30.0527 6.93359 29.9502 6.65039 29.8428C6.36719 29.7354 6.17676 29.6182 6.0791 29.4912C5.98145 29.3545 5.93262 29.2031 5.93262 29.0371C5.93262 28.9297 5.95215 28.8223 5.99121 28.7148L8.12988 23.3535C9.21387 23.334 10.0879 23.3193 10.752 23.3096C11.4258 23.2998 11.8896 23.2949 12.1436 23.2949C12.7002 23.2949 13.1934 23.2998 13.623 23.3096C14.0625 23.3096 14.4385 23.3145 14.751 23.3242L16.875 28.7148C16.9238 28.8613 16.9482 28.9736 16.9482 29.0518C16.9482 29.3154 16.8115 29.5498 16.5381 29.7549C16.2744 29.96 15.9473 30.1016 15.5566 30.1797L13.9746 30.3994C13.916 30.5361 13.8867 30.6582 13.8867 30.7656C13.8867 30.8828 13.916 31 13.9746 31.1172C14.8047 31.0879 15.6445 31.0635 16.4941 31.0439C17.3535 31.0244 18.2324 31.0146 19.1309 31.0146C20.0293 31.0146 20.9375 31.0244 21.8555 31.0439C22.7832 31.0635 23.7354 31.0879 24.7119 31.1172C24.7803 30.9805 24.8145 30.8633 24.8145 30.7656C24.8145 30.707 24.8047 30.6484 24.7852 30.5898C24.7656 30.5312 24.7412 30.4678 24.7119 30.3994ZM12.1436 22.1523C10.7275 22.1523 9.56055 22.1328 8.64258 22.0938L11.4258 14.916H11.4844L14.2822 22.123C13.7549 22.1426 13.042 22.1523 12.1436 22.1523ZM11.4551 16.4541L9.50684 21.5225C10.6885 21.5811 11.9873 21.5908 13.4033 21.5518L11.4551 16.4541ZM25.166 29.8574C25.4102 30.4434 25.4004 31.0635 25.1367 31.7178H13.5205C13.2861 31.0439 13.2861 30.4238 13.5205 29.8574C14.585 29.7988 15.3369 29.6914 15.7764 29.5352C16.2158 29.3691 16.3672 29.1055 16.2305 28.7441L14.3115 23.8955C12.5049 23.8271 10.5713 23.8467 8.51074 23.9541L6.62109 28.8027C6.5625 28.9688 6.60645 29.1201 6.75293 29.2568C6.90918 29.3838 7.1582 29.4863 7.5 29.5645C7.8418 29.6426 8.24219 29.7061 8.70117 29.7549C9.16016 29.8037 9.67773 29.8379 10.2539 29.8574C10.498 30.4434 10.4883 31.0635 10.2246 31.7178C7.02148 31.6006 3.79395 31.6006 0.541992 31.7178C0.27832 31.0635 0.268555 30.4434 0.512695 29.8574C2.52441 29.623 3.66211 29.1836 3.92578 28.5391L10.1074 12.9971C10.0684 12.9189 9.99023 12.7432 9.87305 12.4697C9.76562 12.1865 9.70215 12.001 9.68262 11.9131C10.4443 11.1416 10.8643 10.1455 10.9424 8.9248C11.8018 8.50488 12.8125 8.26562 13.9746 8.20703L22.1924 28.5977C22.3779 29.0566 22.6709 29.3643 23.0713 29.5205C23.4717 29.667 24.1699 29.7793 25.166 29.8574Z" fill="white"/>
</svg>
