<svg width="30" height="42" viewBox="0 0 30 42" fill="none" xmlns="http://www.w3.org/2000/svg">
<path d="M0 7H30V37H0V7Z" fill="#FF7F50" fill-opacity="0.8"/>
<path d="M27.3594 32.3594C26.776 32.3281 26.2083 32.2865 25.6562 32.2344C25.1146 32.1719 24.6198 32.0885 24.1719 31.9844C23.724 31.8802 23.3438 31.7448 23.0312 31.5781C22.7292 31.401 22.5312 31.1823 22.4375 30.9219L13.7969 9.57812C13.6198 9.58854 13.4479 9.66146 13.2812 9.79688C13.2083 11.0885 12.8125 12.125 12.0938 12.9062L12.4531 13.8281L5.85938 30.4062C5.44271 31.4479 4.16146 32.099 2.01562 32.3594C1.95312 32.5052 1.92188 32.6354 1.92188 32.75C1.92188 32.875 1.95312 33 2.01562 33.125C3.20312 33.0833 4.15625 33.0521 4.875 33.0312C5.60417 33.0104 6.10417 33 6.375 33C6.61458 33 7.15625 33.0104 8 33.0312C8.85417 33.0521 10.0104 33.0833 11.4688 33.125C11.5312 33 11.5625 32.875 11.5625 32.75C11.5625 32.6354 11.5312 32.5052 11.4688 32.3594C10.6042 32.276 9.90104 32.1875 9.35938 32.0938C8.81771 31.9896 8.39583 31.8802 8.09375 31.7656C7.79167 31.651 7.58854 31.526 7.48438 31.3906C7.38021 31.2448 7.32812 31.0833 7.32812 30.9062C7.32812 30.7917 7.34896 30.6771 7.39062 30.5625L9.67188 24.8438C10.8281 24.8229 11.7604 24.8073 12.4688 24.7969C13.1875 24.7865 13.6823 24.7812 13.9531 24.7812C14.5469 24.7812 15.0729 24.7865 15.5312 24.7969C16 24.7969 16.401 24.8021 16.7344 24.8125L19 30.5625C19.0521 30.7188 19.0781 30.8385 19.0781 30.9219C19.0781 31.2031 18.9323 31.4531 18.6406 31.6719C18.3594 31.8906 18.0104 32.0417 17.5938 32.125L15.9062 32.3594C15.8438 32.5052 15.8125 32.6354 15.8125 32.75C15.8125 32.875 15.8438 33 15.9062 33.125C16.7917 33.0938 17.6875 33.0677 18.5938 33.0469C19.5104 33.026 20.4479 33.0156 21.4062 33.0156C22.3646 33.0156 23.3333 33.026 24.3125 33.0469C25.3021 33.0677 26.3177 33.0938 27.3594 33.125C27.4323 32.9792 27.4688 32.8542 27.4688 32.75C27.4688 32.6875 27.4583 32.625 27.4375 32.5625C27.4167 32.5 27.3906 32.4323 27.3594 32.3594ZM13.9531 23.5625C12.4427 23.5625 11.1979 23.5417 10.2188 23.5L13.1875 15.8438H13.25L16.2344 23.5312C15.6719 23.5521 14.9115 23.5625 13.9531 23.5625ZM13.2188 17.4844L11.1406 22.8906C12.401 22.9531 13.7865 22.9635 15.2969 22.9219L13.2188 17.4844ZM27.8438 31.7812C28.1042 32.4062 28.0938 33.0677 27.8125 33.7656H15.4219C15.1719 33.0469 15.1719 32.3854 15.4219 31.7812C16.5573 31.7188 17.3594 31.6042 17.8281 31.4375C18.2969 31.2604 18.4583 30.9792 18.3125 30.5938L16.2656 25.4219C14.3385 25.349 12.276 25.3698 10.0781 25.4844L8.0625 30.6562C8 30.8333 8.04688 30.9948 8.20312 31.1406C8.36979 31.276 8.63542 31.3854 9 31.4688C9.36458 31.5521 9.79167 31.6198 10.2812 31.6719C10.7708 31.724 11.3229 31.7604 11.9375 31.7812C12.1979 32.4062 12.1875 33.0677 11.9062 33.7656C8.48958 33.6406 5.04688 33.6406 1.57812 33.7656C1.29688 33.0677 1.28646 32.4062 1.54688 31.7812C3.69271 31.5312 4.90625 31.0625 5.1875 30.375L11.7812 13.7969C11.7396 13.7135 11.6562 13.526 11.5312 13.2344C11.4167 12.9323 11.349 12.7344 11.3281 12.6406C12.1406 11.8177 12.5885 10.7552 12.6719 9.45312C13.5885 9.00521 14.6667 8.75 15.9062 8.6875L24.6719 30.4375C24.8698 30.9271 25.1823 31.2552 25.6094 31.4219C26.0365 31.5781 26.7812 31.6979 27.8438 31.7812Z" fill="white"/>
</svg>
